<svg xmlns="http://www.w3.org/2000/svg" xmlns:xlink="http://www.w3.org/1999/xlink" preserveAspectRatio="xMidYMid" width="111.813" height="18.75" viewBox="0 0 111.813 18.75">
  <defs>
    <style>
      .cls-1 {
        fill: #fff;
        fill-rule: evenodd;
      }
    </style>
  </defs>
  <path d="M104.965,11.851 L104.965,18.750 L100.092,18.750 L100.092,11.851 L93.243,0.004 L98.917,0.004 L102.516,6.253 L106.140,0.004 L111.814,0.004 L104.965,11.851 ZM84.741,13.776 C86.015,13.776 87.115,13.326 87.890,12.526 L91.389,15.975 C89.690,17.675 87.340,18.750 84.741,18.750 C79.567,18.750 75.368,14.551 75.368,9.377 C75.368,4.203 79.567,0.004 84.741,0.004 C87.315,0.004 89.640,1.029 91.339,2.729 L87.890,6.203 C87.115,5.428 86.015,4.978 84.741,4.978 C82.191,4.978 80.342,6.827 80.342,9.377 C80.342,11.927 82.191,13.776 84.741,13.776 ZM62.417,9.877 L62.417,18.750 L57.493,18.750 L57.493,0.004 L59.492,0.004 L68.365,8.852 L68.365,0.004 L73.289,0.004 L73.289,18.750 L71.265,18.750 L62.417,9.877 ZM46.341,18.750 C42.217,18.750 38.943,15.475 38.943,11.351 L38.943,0.004 L43.892,0.004 L43.892,11.277 C43.892,12.626 44.991,13.726 46.341,13.726 C47.691,13.726 48.791,12.626 48.791,11.277 L48.791,0.004 L53.739,0.004 L53.739,11.351 C53.739,15.475 50.415,18.750 46.341,18.750 ZM26.666,18.750 C21.492,18.750 17.318,14.576 17.318,9.402 C17.318,4.228 21.492,0.004 26.666,0.004 C31.840,0.004 36.039,4.228 36.039,9.402 C36.039,14.576 31.840,18.750 26.666,18.750 ZM26.666,4.903 C24.216,4.903 22.217,6.903 22.217,9.377 C22.217,11.826 24.216,13.851 26.666,13.851 C29.140,13.851 31.140,11.826 31.140,9.377 C31.140,6.903 29.140,4.903 26.666,4.903 ZM9.241,18.750 L-0.007,18.750 L-0.007,0.004 L8.266,0.004 C11.265,0.004 13.815,2.579 13.815,5.578 C13.815,6.852 13.340,8.027 12.615,8.952 C13.890,9.977 14.740,11.551 14.740,13.251 C14.740,16.225 12.215,18.750 9.241,18.750 ZM7.291,4.078 L4.917,4.078 L4.917,7.327 L7.291,7.327 C8.191,7.327 8.916,6.603 8.916,5.703 C8.916,4.803 8.191,4.078 7.291,4.078 ZM8.216,11.451 L4.917,11.451 L4.917,14.701 L8.216,14.701 C9.116,14.701 9.841,13.976 9.841,13.076 C9.841,12.176 9.066,11.451 8.216,11.451 Z" class="cls-1"/>
</svg>
